<?xml version="1.0" encoding="utf-8" ?><svg xmlns="http://www.w3.org/2000/svg" xmlns:xlink="http://www.w3.org/1999/xlink" width="1024" height="1024" viewBox="0 0 1024 1024"><path fill="#9A9999" transform="scale(2 2)" d="M142.013 165.636C144.657 140.186 165.703 121.064 191.165 121.275L300.679 121.267C309.437 121.268 319.65 120.781 328.273 121.76C351.376 124.385 367.713 143.51 370.548 165.636C372.407 165.73 373.777 165.707 375.643 165.636C394.421 167.93 393.826 160.078 394.209 185.876C399.78 184.402 404.728 183.924 410.026 186.872C427.675 196.69 412.982 222.854 394.209 213.269C394.251 217.746 395.686 228.832 389.988 230.187C386.041 230.938 375.044 230.183 370.548 230.187C370.547 235.06 370.659 239.946 370.182 244.791C367.781 269.228 349.541 285.089 326.522 289.849C325.322 289.414 309.925 289.866 307.579 289.859L184.025 289.261C161.808 285.776 144.294 267.862 142.334 245.334C141.905 240.403 142.43 235.494 142.05 230.629L142.013 230.187C123.191 230.205 118.181 233.473 118.232 214.491C111.832 214.514 104.972 214.869 100.161 209.94C94.7963 204.445 94.8227 194.61 100.397 189.304C105.619 184.334 111.671 184.999 118.232 185.125C118.159 161.833 120.382 165.566 142.013 165.636ZM215.87 212.688C232.203 211.353 244.38 197.06 243.103 180.723C241.826 164.385 227.577 152.157 211.235 153.376C194.811 154.6 182.507 168.938 183.791 185.358C185.074 201.778 199.455 214.03 215.87 212.688ZM300.872 212.203C317.331 210.738 329.483 196.203 328.01 179.744C326.537 163.285 311.997 151.14 295.539 152.621C279.091 154.1 266.955 168.629 268.427 185.077C269.9 201.526 284.423 213.668 300.872 212.203Z"/><path fill="#7C7B7B" transform="scale(2 2)" d="M375.643 165.636C394.421 167.93 393.826 160.078 394.209 185.876C399.78 184.402 404.728 183.924 410.026 186.872C427.675 196.69 412.982 222.854 394.209 213.269C394.251 217.746 395.686 228.832 389.988 230.187C388.43 230.052 385.01 230.156 383.333 230.16L370.548 230.187C370.968 224.879 370.54 215.433 370.538 209.568L370.548 166.33C372.073 166.335 374.207 166.113 375.643 165.636Z"/><path fill="#9A9999" transform="scale(2 2)" d="M394.209 185.876C399.78 184.402 404.728 183.924 410.026 186.872C427.675 196.69 412.982 222.854 394.209 213.269C394.046 212.168 394.185 206.461 394.188 204.956L394.209 185.876Z"/><path fill="#7C7B7B" transform="scale(2 2)" d="M118.232 185.125C118.159 161.833 120.382 165.566 142.013 165.636L142.013 230.187C123.191 230.205 118.181 233.473 118.232 214.491C111.832 214.514 104.972 214.869 100.161 209.94C94.7963 204.445 94.8227 194.61 100.397 189.304C105.619 184.334 111.671 184.999 118.232 185.125Z"/><path fill="#9A9999" transform="scale(2 2)" d="M118.232 185.125L118.232 214.491C111.832 214.514 104.972 214.869 100.161 209.94C94.7963 204.445 94.8227 194.61 100.397 189.304C105.619 184.334 111.671 184.999 118.232 185.125Z"/><path fill="#7C7B7B" transform="scale(2 2)" d="M209.774 145.267C230.558 143.265 249.035 158.475 251.065 179.256C253.095 200.036 237.911 218.535 217.133 220.594C196.315 222.657 177.772 207.436 175.738 186.615C173.704 165.793 188.95 147.272 209.774 145.267ZM215.87 212.688C232.203 211.353 244.38 197.06 243.103 180.723C241.826 164.385 227.577 152.157 211.235 153.376C194.811 154.6 182.507 168.938 183.791 185.358C185.074 201.778 199.455 214.03 215.87 212.688Z"/><path fill="#C2C1C0" transform="scale(2 2)" d="M205.952 170.759C218.038 163.422 231.357 173.992 228.053 187.22C223.559 205.209 191.863 200.178 199.242 176.477C200.855 180.423 201.208 181.551 204.884 183.913C209.439 184.454 213.248 182.215 212.592 177.192C212.177 172.774 209.915 171.669 205.952 170.759Z"/><path fill="#4E4D4D" transform="scale(2 2)" d="M212.592 177.192C213.177 171.898 221.776 178.63 222.362 181.857C224.561 193.953 204.202 195.609 204.884 183.913C209.439 184.454 213.248 182.215 212.592 177.192Z"/><path fill="#7C7B7B" transform="scale(2 2)" d="M295.542 144.808C316.314 143.414 334.302 159.082 335.771 179.849C337.24 200.616 321.637 218.66 300.875 220.204C280.007 221.755 261.851 206.055 260.375 185.182C258.898 164.309 274.664 146.209 295.542 144.808ZM300.872 212.203C317.331 210.738 329.483 196.203 328.01 179.744C326.537 163.285 311.997 151.14 295.539 152.621C279.091 154.1 266.955 168.629 268.427 185.077C269.9 201.526 284.423 213.668 300.872 212.203Z"/><path fill="#C2C1C0" transform="scale(2 2)" d="M287.943 170.759C301.011 161.549 315.359 171.433 312.444 186.608C307.831 205.945 274.364 198.17 283.605 176.477C284.015 181.243 285.221 183.572 290.496 183.913C295.095 183.407 297.022 179.464 296.363 175.197C295.246 170.98 291.693 170.395 287.943 170.759Z"/><path fill="#4E4D4D" transform="scale(2 2)" d="M296.363 175.197C305.006 169.461 311.864 194.694 295.441 191.202C293.184 190.723 287.846 186.87 288.75 184.095L290.496 183.913C295.095 183.407 297.022 179.464 296.363 175.197Z"/><path fill="#7C7B7B" transform="scale(2 2)" d="M207.275 237.539C207.388 237.526 207.5 237.513 207.613 237.499L292.548 237.534C305.868 237.536 325.104 236.853 326.515 255.838C327.651 271.132 319.564 266.834 305.626 266.809L200.64 266.821C195.106 266.85 189.435 268.46 185.851 263.347L185.768 262.742C183.92 249.445 194.509 238.975 207.275 237.539Z"/><path fill="#FEFEFE" transform="scale(2 2)" d="M193.254 260.431C193.104 244.201 206.087 243.758 218.953 243.751L300.211 243.748C311.542 243.787 319.233 248.285 319.156 260.431C315.773 260.718 314.179 260.719 310.774 260.431C310.786 258.133 311.05 254.567 310.053 252.608L309.364 252.548C308.28 254.179 308.527 258.4 308.551 260.431C304.612 260.406 299.512 260.678 295.711 260.431C295.521 248.672 293.239 250.296 293.224 260.431L279.761 260.431C279.649 248.484 277.176 250.096 277.253 260.431L264.697 260.431L264.697 252.456C260.497 252.114 262.077 256.174 262.095 260.431L249.206 260.431C249.176 257.958 249.447 254.806 249.206 252.456C248.817 255.961 250.379 260.055 246.741 260.431C245.376 260.636 236.185 260.44 234.296 260.431C234.326 257.769 234.645 254.042 233.344 251.815L232.53 251.716C231.173 253.277 231.542 258.279 231.576 260.431L219.247 260.431C219.231 248.164 216.659 249.209 216.779 260.431L204.884 260.431C204.788 248.515 202.2 250.386 202.301 260.431C199.286 260.391 196.269 260.417 193.254 260.431Z"/><path fill="#6B696A" transform="scale(2 2)" d="M246.741 260.431C246.742 259.131 245.639 249.005 249.206 252.456C248.817 255.961 250.379 260.055 246.741 260.431Z"/><path fill="#C2C1C0" transform="scale(2 2)" d="M184.025 289.261L307.579 289.859C309.925 289.866 325.322 289.414 326.522 289.849C328.121 290.478 330.502 289.741 332.257 289.752C344.975 289.838 354.205 288.793 361.844 301.323C365.428 307.2 362.96 321.838 364.402 324.245C365.594 324.11 369.073 324.257 370.548 324.245L378.14 324.245C377.74 329.695 377.809 339.98 378.14 345.495L364.402 345.495C364.1 346.818 364.383 351.868 364.392 353.62L364.4 412.443C364.397 418.957 364.145 427.322 364.402 433.66C364.291 452.702 355.092 468.727 334.376 468.87L191.502 468.788C178.715 468.811 168.643 470.098 158.63 460.211C150.776 452.455 148.812 444.382 148.742 433.66C149.022 429.11 148.748 421.099 148.746 416.274L148.745 356.678C148.747 354.392 148.965 348.592 148.742 346.766L144.377 346.766L140.211 346.766L133.71 346.766L128.046 346.766C127.865 343.809 128.352 340.506 128.046 337.639C127.941 334.885 127.988 331.5 128.046 328.741C128.114 328.06 128.036 325.143 128.046 324.245L128.98 324.245L128.98 324.245C130.55 324.093 134.165 324.226 135.87 324.245C139.987 324.064 144.496 324.352 148.742 324.245C148.669 315.817 147.57 306.154 152.659 299.125C161.871 286.01 172.591 291.575 184.025 289.261Z"/><path fill="#7C7B7B" transform="scale(2 2)" d="M148.742 433.66L364.402 433.66C364.291 452.702 355.092 468.727 334.376 468.87L191.502 468.788C178.715 468.811 168.643 470.098 158.63 460.211C150.776 452.455 148.812 444.382 148.742 433.66Z"/><path fill="#9A9999" transform="scale(2 2)" d="M370.548 324.245L378.14 324.245C377.74 329.695 377.809 339.98 378.14 345.495L364.402 345.495L364.402 345.495C364.65 343.592 364.784 325.911 364.402 324.245C365.594 324.11 369.073 324.257 370.548 324.245Z"/><path fill="#7C7B7B" transform="scale(2 2)" d="M364.402 324.245C365.594 324.11 369.073 324.257 370.548 324.245C371.256 329.961 370.543 339.416 370.548 345.495C368.369 345.422 366.58 345.42 364.402 345.495C364.65 343.592 364.784 325.911 364.402 324.245Z"/><path fill="#9A9999" transform="scale(2 2)" d="M128.98 324.245C130.55 324.093 134.165 324.226 135.87 324.245C137.454 324.389 138.625 324.315 140.211 324.245L140.211 346.766L133.71 346.766L128.046 346.766C127.865 343.809 128.352 340.506 128.046 337.639C127.941 334.885 127.988 331.5 128.046 328.741C128.114 328.06 128.036 325.143 128.046 324.245L128.98 324.245L128.98 324.245Z"/><path fill="#7C7B7B" transform="scale(2 2)" d="M128.98 324.245L128.98 324.245C130.332 324.407 132.345 324.386 133.71 324.245C133.787 331.753 133.641 339.268 133.71 346.766L128.046 346.766C127.865 343.809 128.352 340.506 128.046 337.639C127.941 334.885 127.988 331.5 128.046 328.741C128.114 328.06 128.036 325.143 128.046 324.245L128.98 324.245Z"/><path fill="#7C7B7B" transform="scale(2 2)" d="M140.211 324.245L144.377 324.245L144.399 339.637C144.402 341.379 144.528 345.183 144.377 346.766L140.211 346.766L140.211 324.245Z"/><path fill="#9A9999" transform="scale(2 2)" d="M144.377 324.245C145.973 324.301 147.149 324.327 148.742 324.245C148.645 331.64 148.275 339.386 148.742 346.766L144.377 346.766C144.528 345.183 144.402 341.379 144.399 339.637L144.377 324.245Z"/><path fill="#9A9999" transform="scale(2 2)" d="M283.605 335.787C293.132 332.534 296.66 348.539 300.772 354.478C340.424 368.185 317.654 416 286.947 407.243C271.944 402.583 263.294 387.746 268.504 372.58C245.636 366.89 262.288 337.026 278.223 357.071C274.665 349.031 269.587 336.711 283.605 335.787Z"/><path fill="#4E4D4D" transform="scale(2 2)" d="M289.163 367.444L298.239 376.863C300.544 379.252 303.062 382.035 305.626 384.083C302.578 386.454 300.189 388.759 297.437 391.431C296.069 391.171 283.393 377.149 281.723 375.31C283.864 372.629 286.718 369.9 289.163 367.444Z"/><path fill="#9A9999" transform="scale(2 2)" d="M224.223 316.281C238.507 315.713 238.552 326.194 233.405 335.787C245.184 325.449 258.819 338.52 245.305 350.771C252.985 366.097 243.796 383.178 228.061 388.358C188.5 396.781 180.881 339.498 214.653 333.899C215.035 327.033 216.407 318.129 224.223 316.281Z"/><path fill="#4E4D4D" transform="scale(2 2)" d="M226.753 348.432C228.3 349.488 232.89 354.588 234.296 356.113C230.756 359.565 221.682 368.189 219.247 371.828C216.929 370.722 213.184 366.293 211.604 364.277C213.112 362.176 216.002 359.461 217.896 357.543L226.753 348.432Z"/><path fill="#C2C1C0" transform="scale(2 2)" d="M411.744 368.008C411.745 372.712 411.837 377.815 411.744 382.49C412.323 383.301 416.757 385.044 418.243 385.97C433.549 395.201 436.447 420.729 422.759 431.537C415.798 436.768 407.535 430.143 415.175 417.334C424.831 401.147 392.895 386.539 388.459 409.696C386.706 418.143 395.989 420.856 393.537 428.575C392.464 431.951 388.443 433.655 385.224 432.972C373.08 430.639 364.234 393.319 392.031 383.041L392.031 380.856L392.031 379.313C392.095 377.835 392.038 375.993 392.031 374.485C392.255 371.957 392.22 370.535 392.031 368.008C397.59 368.416 406.366 368.34 411.744 368.008Z"/><path fill="#9A9999" transform="scale(2 2)" d="M411.744 368.008C411.745 372.712 411.837 377.815 411.744 382.49C407.422 380.191 396.485 381.067 392.031 383.041L392.031 380.856L392.031 379.313C392.095 377.835 392.038 375.993 392.031 374.485C392.255 371.957 392.22 370.535 392.031 368.008C397.59 368.416 406.366 368.34 411.744 368.008Z"/><path fill="#7C7B7B" transform="scale(2 2)" d="M392.031 374.485C398.598 374.512 405.178 374.577 411.744 374.485C411.58 376.577 411.63 377.763 411.744 379.876C405.282 379.758 398.579 379.288 392.031 379.313C392.095 377.835 392.038 375.993 392.031 374.485Z"/><path fill="#C2C1C0" transform="scale(2 2)" d="M100.513 374.485L100.513 374.485L113.164 374.451C114.776 374.443 118.29 374.294 119.741 374.485L119.741 378.343C119.949 379.629 119.802 381.165 119.741 382.49C133.585 388.145 140.886 399.265 138.004 414.258C133.007 439.136 116.321 434.714 117.746 424.466C118.413 419.676 122.561 418.189 123.509 413.518C127.125 395.699 99.6404 389.362 95.2735 407.599C93.7244 414.069 95.3255 416.388 99.0082 421.314C104.572 428.758 91.1659 440.799 83.342 424.391C74.8964 406.32 82.9423 389.94 100.513 381.968C100.337 379.909 99.9403 376.369 100.513 374.485Z"/><path fill="#7C7B7B" transform="scale(2 2)" d="M100.513 374.485L113.164 374.451C114.776 374.443 118.29 374.294 119.741 374.485L119.741 378.343L119.741 379.313C113.56 379.451 106.795 378.994 100.513 379.313L100.513 374.485Z"/><path fill="#9A9999" transform="scale(2 2)" d="M100.513 379.313C106.795 378.994 113.56 379.451 119.741 379.313L119.741 382.49C112.05 379.61 108.208 379.683 100.513 381.968L100.513 379.313Z"/><path fill="#C2C1C0" transform="scale(2 2)" d="M387.031 324.245C402.237 304.562 428.59 326.029 415.416 342.998C414.351 344.37 412.64 346.104 411.744 347.464C411.598 352.958 411.751 358.749 411.744 364.277L411.744 368.008C406.366 368.34 397.59 368.416 392.031 368.008C392.22 370.535 392.255 371.957 392.031 374.485C392.038 375.993 392.095 377.835 392.031 379.313L392.031 380.856C391.86 379.793 391.983 375.418 391.994 374.107L392.064 356.855C392.071 353.118 393.513 346.396 389.988 345.495C387.898 345.358 384.656 345.48 382.483 345.495L378.14 345.495C377.809 339.98 377.74 329.695 378.14 324.245L383.017 324.245L387.031 324.245Z"/><path fill="#9A9999" transform="scale(2 2)" d="M392.031 347.464C404.928 353.514 403.11 347.908 411.744 347.464C411.598 352.958 411.751 358.749 411.744 364.277L411.744 368.008C406.366 368.34 397.59 368.416 392.031 368.008L392.031 363.482C392.269 361.077 392.195 359.464 392.031 357.071C392.104 355.543 392.04 353.579 392.031 352.016C392.161 350.494 392.078 348.991 392.031 347.464Z"/><path fill="#7C7B7B" transform="scale(2 2)" d="M392.031 352.016C398.268 351.976 405.563 351.775 411.744 352.016C411.688 353.811 411.676 355.278 411.744 357.071C406.013 356.762 397.904 356.978 392.031 357.071C392.104 355.543 392.04 353.579 392.031 352.016Z"/><path fill="#7C7B7B" transform="scale(2 2)" d="M392.031 363.482C395.001 363.474 409.586 363.22 411.343 363.845L411.744 364.277L411.744 368.008C406.366 368.34 397.59 368.416 392.031 368.008L392.031 363.482Z"/><path fill="#7C7B7B" transform="scale(2 2)" d="M378.14 324.245L383.017 324.245C383.202 327.118 383.21 343.44 382.483 345.495L378.14 345.495C377.809 339.98 377.74 329.695 378.14 324.245Z"/><path fill="#9A9999" transform="scale(2 2)" d="M383.017 324.245L387.031 324.245C381.538 334.334 384.747 337.588 389.988 345.495C387.898 345.358 384.656 345.48 382.483 345.495C383.21 343.44 383.202 327.118 383.017 324.245Z"/><path fill="#7C7B7B" transform="scale(2 2)" d="M251.788 41.2082C263.451 39.7218 274.093 48.0174 275.498 59.6903C276.904 71.3632 268.534 81.9473 256.852 83.2712C245.284 84.5821 234.826 76.3124 233.435 64.7539C232.043 53.1954 240.24 42.68 251.788 41.2082Z"/><path fill="#C2C1C0" transform="scale(2 2)" d="M100.513 347.464C100.066 345.357 94.5591 341.644 94.4508 334.771C93.698 325.245 100.515 317.748 110.001 317.227C117.602 316.81 120.23 319.464 125.43 324.245L128.98 324.245L128.046 324.245C128.036 325.143 128.114 328.06 128.046 328.741C127.988 331.5 127.941 334.885 128.046 337.639C128.352 340.506 127.865 343.809 128.046 346.766C126.184 346.789 124.303 346.771 122.439 346.766C121.631 346.881 120.149 346.819 119.741 347.464C106.986 353.563 104.247 346.439 100.646 347.047L100.513 347.464Z"/><path fill="#9A9999" transform="scale(2 2)" d="M122.439 346.766L122.243 346.511C122.4 345.773 124.128 344.37 124.791 343.493C126.196 341.633 127.04 339.726 128.046 337.639C128.352 340.506 127.865 343.809 128.046 346.766C126.184 346.789 124.303 346.771 122.439 346.766Z"/><path fill="#9A9999" transform="scale(2 2)" d="M128.046 328.741C126.355 326.574 124.239 324.775 128.046 324.245C128.036 325.143 128.114 328.06 128.046 328.741Z"/><defs><linearGradient id="gradient_0" gradientUnits="userSpaceOnUse" x1="428.30862" y1="124.88225" x2="384.33533" y2="130.08453"><stop offset="0" stop-color="#CCCBCA"/><stop offset="1" stop-color="#FAFAF9"/></linearGradient></defs><path fill="url(#gradient_0)" transform="scale(2 2)" d="M404.101 110.342C408.679 109.829 408.358 113.823 409.934 117.157C414.435 126.677 420.307 122.756 427.638 124.838C429.504 125.368 429.668 128.256 428.833 129.08C426.532 131.35 421.309 130.214 418.02 131.112C410.306 133.217 410.951 138.692 407.677 144.129L407.364 144.348C401.356 148.639 401.753 136.515 398.363 133.416C393.325 128.812 382.817 131.187 383.53 127.179C383.71 123.768 389.132 124.64 391.626 124.166C404.541 121.709 398.784 114.918 404.101 110.342Z"/><path fill="#9A9999" transform="scale(2 2)" d="M100.513 347.464L100.646 347.047C104.247 346.439 106.986 353.563 119.741 347.464L119.741 352.016L119.741 357.071L119.741 363.482L119.741 368.008L119.741 374.485C118.29 374.294 114.776 374.443 113.164 374.451L100.513 374.485L100.513 374.485L100.513 347.464Z"/><path fill="#7C7B7B" transform="scale(2 2)" d="M100.513 352.016C105.285 352.307 114.791 352.159 119.741 352.016L119.741 357.071C117.455 357.339 114.142 357.177 111.743 357.139L100.513 357.071C100.621 355.142 100.606 353.95 100.513 352.016Z"/><path fill="#7C7B7B" transform="scale(2 2)" d="M100.513 363.482C106.616 363.505 113.876 362.636 119.741 363.482L119.741 368.008C114.073 367.729 106.371 367.999 100.513 368.008C100.628 366.208 100.623 365.284 100.513 363.482Z"/><path fill="#6B696A" transform="scale(2 2)" d="M256.994 83.939C260.595 85.4194 254.23 90.5763 253.019 91.856C260.772 101.054 260.56 93.9204 253.019 104.481C255.152 106.403 257.41 108.125 259.171 110.342C258.415 111.562 250.456 120.148 249.206 121.27C244.56 117.248 251.046 114.124 253.924 110.719L254.24 110.342C247.433 104.095 244.721 105.82 254.24 97.5382C252.703 96.3483 248.977 94.5628 248.368 93.1066C246.887 89.5689 254.621 84.9033 256.994 83.939Z"/></svg>